<?xml version="1.0" encoding="utf-8"?>
<svg xmlns="http://www.w3.org/2000/svg" xmlns:xlink="http://www.w3.org/1999/xlink" style="margin: auto; background: none; display: block; shape-rendering: auto;" width="200px" height="200px" viewBox="0 0 100 100" preserveAspectRatio="xMidYMid">
<g transform="translate(50 50)">
<g>
<animateTransform attributeName="transform" type="rotate" values="0;45" keyTimes="0;1" dur="0.23809523809523808s" repeatCount="indefinite"></animateTransform><path d="M29.58039891549808 -5 L37.58039891549808 -5 L37.58039891549808 5 L29.58039891549808 5 A30 30 0 0 1 24.452034569284628 17.38096675741915 L24.452034569284628 17.38096675741915 L30.108888818777007 23.03782100691153 L23.037821006911532 30.108888818777007 L17.380966757419152 24.452034569284628 A30 30 0 0 1 5.000000000000001 29.58039891549808 L5.000000000000001 29.58039891549808 L5.000000000000002 37.58039891549808 L-4.9999999999999964 37.58039891549808 L-4.999999999999997 29.58039891549808 A30 30 0 0 1 -17.38096675741915 24.452034569284628 L-17.38096675741915 24.452034569284628 L-23.03782100691153 30.108888818777007 L-30.108888818777004 23.037821006911532 L-24.452034569284624 17.380966757419152 A30 30 0 0 1 -29.58039891549808 5.000000000000002 L-29.58039891549808 5.000000000000002 L-37.58039891549808 5.000000000000003 L-37.58039891549808 -4.999999999999995 L-29.58039891549808 -4.999999999999996 A30 30 0 0 1 -24.45203456928463 -17.38096675741915 L-24.45203456928463 -17.38096675741915 L-30.10888881877701 -23.03782100691153 L-23.037821006911525 -30.10888881877701 L-17.380966757419145 -24.45203456928463 A30 30 0 0 1 -5.000000000000017 -29.580398915498076 L-5.000000000000017 -29.580398915498076 L-5.000000000000019 -37.58039891549808 L5.000000000000004 -37.58039891549808 L5.000000000000006 -29.58039891549808 A30 30 0 0 1 17.380966757419138 -24.452034569284635 L17.380966757419138 -24.452034569284635 L23.037821006911518 -30.108888818777018 L30.10888881877701 -23.03782100691153 L24.45203456928463 -17.380966757419145 A30 30 0 0 1 29.580398915498076 -5.0000000000000195 M0 -20A20 20 0 1 0 0 20 A20 20 0 1 0 0 -20" fill="#75bf43"></path></g></g>
<!-- [ldio] generated by https://loading.io/ --></svg>